<?xml version="1.0" encoding="UTF-8" standalone="no"?>
<svg width="84px" height="84px" viewBox="0 0 84 84" version="1.1" xmlns="http://www.w3.org/2000/svg" xmlns:xlink="http://www.w3.org/1999/xlink">
    <!-- Generator: Sketch 3.8.3 (29802) - http://www.bohemiancoding.com/sketch -->
    <title>noun_70958_cc</title>
    <desc>Created with Sketch.</desc>
    <defs></defs>
    <g id="Page-1" stroke="none" stroke-width="1" fill="none" fill-rule="evenodd">
        <g id="noun_70958_cc" fill="#FFFFFF">
            <path d="M60.604,28.099 L35.513,53.19 L24.396,42.073 C23.615,41.292 22.348,41.292 21.568,42.073 C20.787,42.854 20.787,44.12 21.568,44.901 L34.099,57.433 C34.474,57.808 34.983,58.018 35.513,58.018 C36.043,58.018 36.552,57.808 36.927,57.433 L63.433,30.927 C64.214,30.146 64.214,28.88 63.433,28.099 C62.652,27.318 61.385,27.317 60.604,28.099 L60.604,28.099 Z" id="Shape"></path>
            <path d="M42,0 C19.234,0 0,19.233 0,42 C0,64.767 19.234,84 42,84 C64.766,84 84,64.767 84,42 C84,19.233 64.766,0 42,0 L42,0 Z M42,80 C21.402,80 4,62.598 4,42 C4,21.402 21.402,4 42,4 C62.598,4 80,21.402 80,42 C80,62.598 62.598,80 42,80 L42,80 Z" id="Shape"></path>
        </g>
    </g>
</svg>