<?xml version="1.0" encoding="UTF-8" standalone="no"?>
<svg width="84px" height="84px" viewBox="0 0 84 84" version="1.1" xmlns="http://www.w3.org/2000/svg" xmlns:xlink="http://www.w3.org/1999/xlink">
    <!-- Generator: Sketch 3.8.3 (29802) - http://www.bohemiancoding.com/sketch -->
    <title>wrong</title>
    <desc>Created with Sketch.</desc>
    <defs></defs>
    <g id="Page-1" stroke="none" stroke-width="1" fill="none" fill-rule="evenodd">
        <g id="wrong" fill="#FFFFFF">
            <path d="M27.651,58.642 C28.163,58.642 28.675,58.447 29.065,58.057 L42.5,44.621 L55.935,58.057 C56.325,58.447 56.837,58.642 57.349,58.642 C57.861,58.642 58.373,58.447 58.763,58.057 C59.544,57.276 59.544,56.009 58.763,55.228 L45.328,41.793 L58.056,29.065 C58.837,28.284 58.837,27.017 58.056,26.236 C57.276,25.456 56.008,25.456 55.228,26.236 L42.5,38.965 L29.772,26.236 C28.992,25.456 27.724,25.456 26.944,26.236 C26.163,27.017 26.163,28.284 26.944,29.065 L39.672,41.793 L26.237,55.228 C25.456,56.009 25.456,57.276 26.237,58.057 C26.627,58.447 27.139,58.642 27.651,58.642 L27.651,58.642 Z" id="Shape"></path>
            <path d="M0,42 C0,64.767 19.234,84 42,84 C64.766,84 84,64.767 84,42 C84,19.233 64.766,0 42,0 C19.234,0 0,19.233 0,42 L0,42 Z M42,4 C62.598,4 80,21.402 80,42 C80,62.598 62.598,80 42,80 C21.402,80 4,62.598 4,42 C4,21.402 21.402,4 42,4 L42,4 Z" id="Shape"></path>
        </g>
    </g>
</svg>